<svg xmlns="http://www.w3.org/2000/svg" x="0px" y="0px"
width="21" height="21"
viewBox="0,0,256,256"
style="fill:#000000;">
<g fill="#ffffff" fill-rule="nonzero" stroke="none" stroke-width="1" stroke-linecap="butt" stroke-linejoin="miter" stroke-miterlimit="10" stroke-dasharray="" stroke-dashoffset="0" font-family="none" font-weight="none" font-size="none" text-anchor="none" style="mix-blend-mode: normal"><g transform="scale(8,8)"><path d="M15.5,2v2.5h-2.5v1h2.5v2.5h1v-2.5h2.5v-1h-2.5v-2.5zM8,6v3h-3v1h3v3h1v-3h3v-1h-3v-3zM23,6v3h-3v1h3v3h1v-3h3v-1h-3v-3zM15,11v4h-4v2h4v4h2v-4h4v-2h-4v-4zM4.5,13v2.5h-2.5v1h2.5v2.5h1v-2.5h2.5v-1h-2.5v-2.5zM26.5,13v2.5h-2.5v1h2.5v2.5h1v-2.5h2.5v-1h-2.5v-2.5zM8,19v3h-3v1h3v3h1v-3h3v-1h-3v-3zM23,19v3h-3v1h3v3h1v-3h3v-1h-3v-3zM15.5,24v2.5h-2.5v1h2.5v2.5h1v-2.5h2.5v-1h-2.5v-2.5z"></path></g></g>
</svg>